<svg id="visual" viewBox="0 0 960 540" width="960" height="540" xmlns="http://www.w3.org/2000/svg" xmlns:xlink="http://www.w3.org/1999/xlink" version="1.1"><g stroke-width="1" stroke-linejoin="bevel"><path d="M495.6 250.4L456.4 300.6L522.6 286.6Z" fill="#1d4e6b" stroke="#1d4e6b"></path><path d="M495.6 250.4L442.4 204.4L456.4 300.6Z" fill="#0c2435" stroke="#0c2435"></path><path d="M370.1 328.6L450.4 377.7L456.4 300.6Z" fill="#0c2435" stroke="#0c2435"></path><path d="M456.4 300.6L496.6 384.7L522.6 286.6Z" fill="#277297" stroke="#277297"></path><path d="M450.4 377.7L496.6 384.7L456.4 300.6Z" fill="#081a28" stroke="#081a28"></path><path d="M615.9 383.7L598.9 280.6L522.6 286.6Z" fill="#297ea6" stroke="#297ea6"></path><path d="M522.6 286.6L598.9 280.6L495.6 250.4Z" fill="#15384f" stroke="#15384f"></path><path d="M495.6 250.4L463.4 165.3L442.4 204.4Z" fill="#0c2435" stroke="#0c2435"></path><path d="M517.6 158.3L463.4 165.3L495.6 250.4Z" fill="#112e42" stroke="#112e42"></path><path d="M374.1 219.4L456.4 300.6L442.4 204.4Z" fill="#19435d" stroke="#19435d"></path><path d="M374.1 219.4L370.1 328.6L456.4 300.6Z" fill="#00101c" stroke="#00101c"></path><path d="M631.9 227.4L517.6 158.3L495.6 250.4Z" fill="#00101c" stroke="#00101c"></path><path d="M336.1 166.3L374.1 219.4L406.4 102.1Z" fill="#246688" stroke="#246688"></path><path d="M598.9 280.6L631.9 227.4L495.6 250.4Z" fill="#297ea6" stroke="#297ea6"></path><path d="M496.6 384.7L615.9 383.7L522.6 286.6Z" fill="#112e42" stroke="#112e42"></path><path d="M598.9 280.6L682.2 224.4L631.9 227.4Z" fill="#277297" stroke="#277297"></path><path d="M370.1 328.6L376.1 404.7L450.4 377.7Z" fill="#19435d" stroke="#19435d"></path><path d="M450.4 377.7L495.6 464.9L496.6 384.7Z" fill="#112e42" stroke="#112e42"></path><path d="M496.6 384.7L495.6 464.9L615.9 383.7Z" fill="#081a28" stroke="#081a28"></path><path d="M425.4 457.9L495.6 464.9L450.4 377.7Z" fill="#0c2435" stroke="#0c2435"></path><path d="M376.1 404.7L425.4 457.9L450.4 377.7Z" fill="#00101c" stroke="#00101c"></path><path d="M406.4 102.1L442.4 204.4L463.4 165.3Z" fill="#205a7a" stroke="#205a7a"></path><path d="M406.4 102.1L374.1 219.4L442.4 204.4Z" fill="#112e42" stroke="#112e42"></path><path d="M374.1 219.4L246.8 289.6L370.1 328.6Z" fill="#205a7a" stroke="#205a7a"></path><path d="M238.8 357.7L358.1 436.9L376.1 404.7Z" fill="#081a28" stroke="#081a28"></path><path d="M538.6 70.1L406.4 102.1L463.4 165.3Z" fill="#112e42" stroke="#112e42"></path><path d="M238.8 357.7L376.1 404.7L370.1 328.6Z" fill="#0c2435" stroke="#0c2435"></path><path d="M376.1 404.7L358.1 436.9L425.4 457.9Z" fill="#19435d" stroke="#19435d"></path><path d="M631.9 227.4L618.9 132.3L517.6 158.3Z" fill="#112e42" stroke="#112e42"></path><path d="M517.6 158.3L538.6 70.1L463.4 165.3Z" fill="#205a7a" stroke="#205a7a"></path><path d="M710.2 318.6L682.2 224.4L598.9 280.6Z" fill="#081a28" stroke="#081a28"></path><path d="M631.9 227.4L682.2 224.4L618.9 132.3Z" fill="#1d4e6b" stroke="#1d4e6b"></path><path d="M495.6 464.9L627.9 441.9L615.9 383.7Z" fill="#0c2435" stroke="#0c2435"></path><path d="M615.9 383.7L710.2 318.6L598.9 280.6Z" fill="#112e42" stroke="#112e42"></path><path d="M627.9 441.9L668.2 401.7L615.9 383.7Z" fill="#00101c" stroke="#00101c"></path><path d="M406.4 102.1L367.1 103.1L336.1 166.3Z" fill="#205a7a" stroke="#205a7a"></path><path d="M618.9 132.3L538.6 70.1L517.6 158.3Z" fill="#00101c" stroke="#00101c"></path><path d="M406.4 102.1L320.1 0L367.1 103.1Z" fill="#0c2435" stroke="#0c2435"></path><path d="M668.2 401.7L710.2 318.6L615.9 383.7Z" fill="#246688" stroke="#246688"></path><path d="M245.8 243.4L374.1 219.4L336.1 166.3Z" fill="#1d4e6b" stroke="#1d4e6b"></path><path d="M245.8 243.4L246.8 289.6L374.1 219.4Z" fill="#1d4e6b" stroke="#1d4e6b"></path><path d="M268.8 133.3L245.8 243.4L336.1 166.3Z" fill="#081a28" stroke="#081a28"></path><path d="M686.2 97.1L581.9 55.1L618.9 132.3Z" fill="#246688" stroke="#246688"></path><path d="M618.9 132.3L581.9 55.1L538.6 70.1Z" fill="#00101c" stroke="#00101c"></path><path d="M538.6 70.1L457.4 0L406.4 102.1Z" fill="#1d4e6b" stroke="#1d4e6b"></path><path d="M774.5 244.4L719.2 178.3L682.2 224.4Z" fill="#081a28" stroke="#081a28"></path><path d="M682.2 224.4L719.2 178.3L618.9 132.3Z" fill="#277297" stroke="#277297"></path><path d="M425.4 457.9L447.4 540L495.6 464.9Z" fill="#081a28" stroke="#081a28"></path><path d="M495.6 464.9L543.6 540L627.9 441.9Z" fill="#15384f" stroke="#15384f"></path><path d="M356.1 540L447.4 540L425.4 457.9Z" fill="#246688" stroke="#246688"></path><path d="M180.5 313.6L238.8 357.7L246.8 289.6Z" fill="#0c2435" stroke="#0c2435"></path><path d="M246.8 289.6L238.8 357.7L370.1 328.6Z" fill="#246688" stroke="#246688"></path><path d="M358.1 436.9L356.1 540L425.4 457.9Z" fill="#1d4e6b" stroke="#1d4e6b"></path><path d="M447.4 540L543.6 540L495.6 464.9Z" fill="#246688" stroke="#246688"></path><path d="M627.9 441.9L725.2 440.9L668.2 401.7Z" fill="#297ea6" stroke="#297ea6"></path><path d="M367.1 103.1L268.8 133.3L336.1 166.3Z" fill="#19435d" stroke="#19435d"></path><path d="M719.2 178.3L686.2 97.1L618.9 132.3Z" fill="#081a28" stroke="#081a28"></path><path d="M543.6 540L590.9 540L627.9 441.9Z" fill="#0c2435" stroke="#0c2435"></path><path d="M668.2 401.7L725.2 440.9L710.2 318.6Z" fill="#1d4e6b" stroke="#1d4e6b"></path><path d="M710.2 318.6L774.5 244.4L682.2 224.4Z" fill="#15384f" stroke="#15384f"></path><path d="M675.2 540L725.2 440.9L627.9 441.9Z" fill="#081a28" stroke="#081a28"></path><path d="M527.6 0L538.6 70.1L581.9 55.1Z" fill="#0c2435" stroke="#0c2435"></path><path d="M527.6 0L457.4 0L538.6 70.1Z" fill="#0c2435" stroke="#0c2435"></path><path d="M367.1 103.1L253.8 67.1L268.8 133.3Z" fill="#277297" stroke="#277297"></path><path d="M288.8 540L356.1 540L358.1 436.9Z" fill="#205a7a" stroke="#205a7a"></path><path d="M600.9 0L527.6 0L581.9 55.1Z" fill="#0c2435" stroke="#0c2435"></path><path d="M782.5 327.6L774.5 244.4L710.2 318.6Z" fill="#0c2435" stroke="#0c2435"></path><path d="M719.2 178.3L772.5 125.3L686.2 97.1Z" fill="#0c2435" stroke="#0c2435"></path><path d="M795.5 356.7L782.5 327.6L710.2 318.6Z" fill="#112e42" stroke="#112e42"></path><path d="M268.8 133.3L191.5 238.4L245.8 243.4Z" fill="#297ea6" stroke="#297ea6"></path><path d="M245.8 243.4L191.5 238.4L246.8 289.6Z" fill="#297ea6" stroke="#297ea6"></path><path d="M677.2 0L600.9 0L581.9 55.1Z" fill="#0c2435" stroke="#0c2435"></path><path d="M191.5 238.4L180.5 313.6L246.8 289.6Z" fill="#112e42" stroke="#112e42"></path><path d="M238.8 357.7L239.8 480.9L358.1 436.9Z" fill="#0c2435" stroke="#0c2435"></path><path d="M171.5 384.7L239.8 480.9L238.8 357.7Z" fill="#0c2435" stroke="#0c2435"></path><path d="M725.2 440.9L795.5 356.7L710.2 318.6Z" fill="#205a7a" stroke="#205a7a"></path><path d="M782.5 327.6L857.7 319.6L774.5 244.4Z" fill="#112e42" stroke="#112e42"></path><path d="M590.9 540L675.2 540L627.9 441.9Z" fill="#19435d" stroke="#19435d"></path><path d="M725.2 440.9L850.7 404.7L795.5 356.7Z" fill="#19435d" stroke="#19435d"></path><path d="M320.1 0L253.8 67.1L367.1 103.1Z" fill="#297ea6" stroke="#297ea6"></path><path d="M268.8 133.3L147.5 174.3L191.5 238.4Z" fill="#1d4e6b" stroke="#1d4e6b"></path><path d="M239.8 480.9L288.8 540L358.1 436.9Z" fill="#297ea6" stroke="#297ea6"></path><path d="M794.5 99.1L772.5 125.3L851.7 171.3Z" fill="#112e42" stroke="#112e42"></path><path d="M774.5 244.4L772.5 125.3L719.2 178.3Z" fill="#112e42" stroke="#112e42"></path><path d="M686.2 97.1L677.2 0L581.9 55.1Z" fill="#297ea6" stroke="#297ea6"></path><path d="M457.4 0L320.1 0L406.4 102.1Z" fill="#081a28" stroke="#081a28"></path><path d="M180.5 313.6L171.5 384.7L238.8 357.7Z" fill="#15384f" stroke="#15384f"></path><path d="M770.5 0L677.2 0L686.2 97.1Z" fill="#297ea6" stroke="#297ea6"></path><path d="M757.5 540L774.5 488.9L725.2 440.9Z" fill="#00101c" stroke="#00101c"></path><path d="M185.5 47.1L147.5 174.3L268.8 133.3Z" fill="#246688" stroke="#246688"></path><path d="M191.5 238.4L81.3 248.4L180.5 313.6Z" fill="#15384f" stroke="#15384f"></path><path d="M180.5 313.6L107.3 377.7L171.5 384.7Z" fill="#19435d" stroke="#19435d"></path><path d="M185.5 47.1L268.8 133.3L253.8 67.1Z" fill="#205a7a" stroke="#205a7a"></path><path d="M851.7 171.3L772.5 125.3L774.5 244.4Z" fill="#277297" stroke="#277297"></path><path d="M772.5 125.3L794.5 99.1L686.2 97.1Z" fill="#297ea6" stroke="#297ea6"></path><path d="M320.1 0L255.8 0L253.8 67.1Z" fill="#19435d" stroke="#19435d"></path><path d="M675.2 540L757.5 540L725.2 440.9Z" fill="#0c2435" stroke="#0c2435"></path><path d="M850.7 404.7L857.7 319.6L795.5 356.7Z" fill="#0c2435" stroke="#0c2435"></path><path d="M795.5 356.7L857.7 319.6L782.5 327.6Z" fill="#297ea6" stroke="#297ea6"></path><path d="M850.7 404.7L725.2 440.9L774.5 488.9Z" fill="#00101c" stroke="#00101c"></path><path d="M886.7 253.4L851.7 171.3L774.5 244.4Z" fill="#081a28" stroke="#081a28"></path><path d="M116.3 467.9L157.5 475.9L171.5 384.7Z" fill="#081a28" stroke="#081a28"></path><path d="M171.5 384.7L157.5 475.9L239.8 480.9Z" fill="#277297" stroke="#277297"></path><path d="M239.8 480.9L152.5 540L288.8 540Z" fill="#1d4e6b" stroke="#1d4e6b"></path><path d="M878.7 446.9L850.7 404.7L774.5 488.9Z" fill="#297ea6" stroke="#297ea6"></path><path d="M255.8 0L185.5 47.1L253.8 67.1Z" fill="#0c2435" stroke="#0c2435"></path><path d="M68.3 291.6L107.3 377.7L180.5 313.6Z" fill="#1d4e6b" stroke="#1d4e6b"></path><path d="M857.7 319.6L886.7 253.4L774.5 244.4Z" fill="#081a28" stroke="#081a28"></path><path d="M960 306.6L886.7 253.4L857.7 319.6Z" fill="#15384f" stroke="#15384f"></path><path d="M794.5 99.1L770.5 0L686.2 97.1Z" fill="#0c2435" stroke="#0c2435"></path><path d="M877.7 74.1L770.5 0L794.5 99.1Z" fill="#112e42" stroke="#112e42"></path><path d="M85.3 138.3L81.3 248.4L147.5 174.3Z" fill="#246688" stroke="#246688"></path><path d="M147.5 174.3L81.3 248.4L191.5 238.4Z" fill="#19435d" stroke="#19435d"></path><path d="M255.8 0L189.5 0L185.5 47.1Z" fill="#081a28" stroke="#081a28"></path><path d="M96.3 92.1L85.3 138.3L147.5 174.3Z" fill="#246688" stroke="#246688"></path><path d="M76.3 540L116.3 467.9L0 452.9Z" fill="#081a28" stroke="#081a28"></path><path d="M107.3 377.7L116.3 467.9L171.5 384.7Z" fill="#277297" stroke="#277297"></path><path d="M157.5 475.9L152.5 540L239.8 480.9Z" fill="#112e42" stroke="#112e42"></path><path d="M81.3 248.4L68.3 291.6L180.5 313.6Z" fill="#19435d" stroke="#19435d"></path><path d="M116.3 467.9L152.5 540L157.5 475.9Z" fill="#205a7a" stroke="#205a7a"></path><path d="M856.7 540L878.7 446.9L774.5 488.9Z" fill="#00101c" stroke="#00101c"></path><path d="M960 361.7L960 306.6L857.7 319.6Z" fill="#0c2435" stroke="#0c2435"></path><path d="M96.3 92.1L147.5 174.3L185.5 47.1Z" fill="#081a28" stroke="#081a28"></path><path d="M0 237.4L0 298.6L68.3 291.6Z" fill="#0c2435" stroke="#0c2435"></path><path d="M96.3 0L96.3 92.1L185.5 47.1Z" fill="#246688" stroke="#246688"></path><path d="M960 105.1L877.7 74.1L851.7 171.3Z" fill="#00101c" stroke="#00101c"></path><path d="M851.7 171.3L877.7 74.1L794.5 99.1Z" fill="#277297" stroke="#277297"></path><path d="M757.5 540L856.7 540L774.5 488.9Z" fill="#246688" stroke="#246688"></path><path d="M960 361.7L850.7 404.7L878.7 446.9Z" fill="#081a28" stroke="#081a28"></path><path d="M960 361.7L857.7 319.6L850.7 404.7Z" fill="#081a28" stroke="#081a28"></path><path d="M886.7 253.4L960 165.3L851.7 171.3Z" fill="#00101c" stroke="#00101c"></path><path d="M960 306.6L960 234.4L886.7 253.4Z" fill="#00101c" stroke="#00101c"></path><path d="M960 477.9L960 361.7L878.7 446.9Z" fill="#19435d" stroke="#19435d"></path><path d="M189.5 0L96.3 0L185.5 47.1Z" fill="#246688" stroke="#246688"></path><path d="M0 139.3L0 237.4L85.3 138.3Z" fill="#297ea6" stroke="#297ea6"></path><path d="M0 237.4L68.3 291.6L81.3 248.4Z" fill="#277297" stroke="#277297"></path><path d="M0 407.7L116.3 467.9L107.3 377.7Z" fill="#0c2435" stroke="#0c2435"></path><path d="M116.3 467.9L76.3 540L152.5 540Z" fill="#246688" stroke="#246688"></path><path d="M960 234.4L960 165.3L886.7 253.4Z" fill="#277297" stroke="#277297"></path><path d="M0 237.4L81.3 248.4L85.3 138.3Z" fill="#081a28" stroke="#081a28"></path><path d="M68.3 291.6L0 407.7L107.3 377.7Z" fill="#297ea6" stroke="#297ea6"></path><path d="M0 139.3L85.3 138.3L0 104.1Z" fill="#205a7a" stroke="#205a7a"></path><path d="M877.7 74.1L896.7 0L770.5 0Z" fill="#19435d" stroke="#19435d"></path><path d="M960 0L896.7 0L877.7 74.1Z" fill="#246688" stroke="#246688"></path><path d="M0 298.6L0 407.7L68.3 291.6Z" fill="#1d4e6b" stroke="#1d4e6b"></path><path d="M960 165.3L960 105.1L851.7 171.3Z" fill="#081a28" stroke="#081a28"></path><path d="M0 104.1L85.3 138.3L96.3 92.1Z" fill="#277297" stroke="#277297"></path><path d="M856.7 540L960 477.9L878.7 446.9Z" fill="#00101c" stroke="#00101c"></path><path d="M0 407.7L0 452.9L116.3 467.9Z" fill="#112e42" stroke="#112e42"></path><path d="M0 0L0 104.1L96.3 92.1Z" fill="#19435d" stroke="#19435d"></path><path d="M856.7 540L960 540L960 477.9Z" fill="#00101c" stroke="#00101c"></path><path d="M0 452.9L0 540L76.3 540Z" fill="#112e42" stroke="#112e42"></path><path d="M960 105.1L960 0L877.7 74.1Z" fill="#15384f" stroke="#15384f"></path><path d="M96.3 0L0 0L96.3 92.1Z" fill="#277297" stroke="#277297"></path></g></svg>