<svg xmlns="http://www.w3.org/2000/svg" version="1.1" xmlns:xlink="http://www.w3.org/1999/xlink" xmlns:svgjs="http://svgjs.com/svgjs" width="1440" height="560" preserveAspectRatio="none" viewBox="0 0 1440 560"><g mask="url(&quot;#SvgjsMask1480&quot;)" fill="none"><rect width="1440" height="560" x="0" y="0" fill="url(#SvgjsLinearGradient1481)"></rect><path d="M 0,128 C 57.6,117.6 172.8,64.8 288,76 C 403.2,87.2 460.8,184.2 576,184 C 691.2,183.8 748.8,84.6 864,75 C 979.2,65.4 1036.8,139.6 1152,136 C 1267.2,132.4 1382.4,72.8 1440,57L1440 560L0 560z" fill="rgba(138, 90, 209, 1)"></path><path d="M 0,190 C 57.6,226.4 172.8,369.8 288,372 C 403.2,374.2 460.8,205.4 576,201 C 691.2,196.6 748.8,348.4 864,350 C 979.2,351.6 1036.8,220.8 1152,209 C 1267.2,197.2 1382.4,274.6 1440,291L1440 560L0 560z" fill="rgba(60, 191, 197, 1)"></path><path d="M 0,376 C 144,395 432,460.6 720,471 C 1008,481.4 1296,436.6 1440,428L1440 560L0 560z" fill="#2264ab"></path></g><defs><mask id="SvgjsMask1480"><rect width="1440" height="560" fill="#ffffff"></rect></mask><linearGradient x1="15.28%" y1="139.29%" x2="84.72%" y2="-39.29%" gradientUnits="userSpaceOnUse" id="SvgjsLinearGradient1481"><stop stop-color="#0e2a47" offset="0"></stop><stop stop-color="rgba(98, 11, 80, 1)" offset="1"></stop></linearGradient></defs></svg>